<svg xmlns="http://www.w3.org/2000/svg" width="181.832" height="28.907" viewBox="0 0 181.832 28.907">
  <g id="logo" transform="translate(25.496 -1.2)">
    <path id="Path_3" data-name="Path 3" d="M-21.919,19.135a6.5,6.5,0,0,1-2.642-2.656,8.293,8.293,0,0,1-.934-4.014,10.034,10.034,0,0,1,1-4.605,7.212,7.212,0,0,1,2.868-3.048,8.635,8.635,0,0,1,4.382-1.079,10.008,10.008,0,0,1,2.916.419,6.971,6.971,0,0,1,2.24,1.1,1.359,1.359,0,0,1,.612,1.192,1.5,1.5,0,0,1-.338.969,1.02,1.02,0,0,1-.822.416,1.217,1.217,0,0,1-.612-.191,6.871,6.871,0,0,0-3.9-1.289,4.43,4.43,0,0,0-3.673,1.608,7.059,7.059,0,0,0-1.289,4.511,5.394,5.394,0,0,0,1.16,3.676,4.18,4.18,0,0,0,3.319,1.318,5.868,5.868,0,0,0,1.95-.306,6.487,6.487,0,0,0,1.756-.951,1.6,1.6,0,0,1,.677-.193.918.918,0,0,1,.741.357,1.272,1.272,0,0,1,.29.838,1.307,1.307,0,0,1-.58,1.16,6.334,6.334,0,0,1-2.272,1.254,9.056,9.056,0,0,1-2.852.451A8.166,8.166,0,0,1-21.919,19.135Z" transform="translate(0 4.267)" fill="#4a96ff"/>
    <path id="Path_4" data-name="Path 4" d="M-5.9,9.274c0,.408-.011.72-.032.937l-.644,8.311a1.481,1.481,0,0,1-.467,1.1A1.645,1.645,0,0,1-8.193,20,1.493,1.493,0,0,1-9.32,19.57a1.34,1.34,0,0,1-.354-1.112l.064-1.093a4.786,4.786,0,0,1-1.869,2.014,5.441,5.441,0,0,1-2.771.69A5.854,5.854,0,0,1-18.133,18.8a4.056,4.056,0,0,1-1.531-3.268,4.119,4.119,0,0,1,.934-2.852,5.625,5.625,0,0,1,2.981-1.533,25.055,25.055,0,0,1,5.494-.481h1.16l.064-.808a3.547,3.547,0,0,0-.644-2.691,3.245,3.245,0,0,0-2.513-.854,9.95,9.95,0,0,0-4.7,1.418,1.276,1.276,0,0,1-.644.161,1.043,1.043,0,0,1-.806-.354,1.2,1.2,0,0,1-.322-.838,1.509,1.509,0,0,1,.806-1.289A9.839,9.839,0,0,1-15.1,4.183a11.948,11.948,0,0,1,3.238-.451Q-5.9,3.732-5.9,9.274Zm-4.737,7.188A4.839,4.839,0,0,0-9.32,13.4l.064-.9h-.9a21.089,21.089,0,0,0-3.738.255,3.71,3.71,0,0,0-1.933.838,2.182,2.182,0,0,0-.58,1.611,2.206,2.206,0,0,0,.789,1.788,3.236,3.236,0,0,0,2.143.663A3.8,3.8,0,0,0-10.642,16.463Z" transform="translate(9.828 4.267)" fill="#4a96ff"/>
    <path id="Path_5" data-name="Path 5" d="M9.6,5.1a5.7,5.7,0,0,1,1.273,4.012c0,.451-.011.8-.032,1.034L10.2,18.458a1.546,1.546,0,0,1-.548,1.176A1.9,1.9,0,0,1,8.459,20a1.645,1.645,0,0,1-1.144-.387,1.315,1.315,0,0,1-.371-1.16l.644-8.185a6.388,6.388,0,0,0,.032-.738q0-3.162-2.771-3.161A3.625,3.625,0,0,0,2,7.55,5.839,5.839,0,0,0,.757,11.014l-.58,7.444A1.546,1.546,0,0,1-.37,19.634,1.9,1.9,0,0,1-1.563,20a1.645,1.645,0,0,1-1.144-.387,1.315,1.315,0,0,1-.371-1.16l.644-8.15A7.494,7.494,0,0,0-2.4,9.535a3.5,3.5,0,0,0-.693-2.387A2.7,2.7,0,0,0-5.2,6.374,3.575,3.575,0,0,0-8.04,7.55a5.908,5.908,0,0,0-1.224,3.464l-.612,7.444a1.546,1.546,0,0,1-.548,1.176A1.9,1.9,0,0,1-11.616,20a1.645,1.645,0,0,1-1.144-.387,1.315,1.315,0,0,1-.371-1.16l1.063-13.177a1.362,1.362,0,0,1,.564-1.1A2,2,0,0,1-10.3,3.8a1.475,1.475,0,0,1,1.063.373,1.331,1.331,0,0,1,.354,1.077L-8.942,6.28A5.368,5.368,0,0,1-4.076,3.732a5.374,5.374,0,0,1,2.932.741A4.151,4.151,0,0,1,.532,6.635,5.83,5.83,0,0,1,2.755,4.492a6.411,6.411,0,0,1,3.126-.76A4.834,4.834,0,0,1,9.6,5.1Z" transform="translate(20.825 4.267)" fill="#4a96ff"/>
    <path id="Path_6" data-name="Path 6" d="M10.237,4.669A6.247,6.247,0,0,1,12.6,7.309a8.98,8.98,0,0,1,.838,4,10.646,10.646,0,0,1-.932,4.592,7.251,7.251,0,0,1-2.626,3.077A6.978,6.978,0,0,1,6,20.069a6.208,6.208,0,0,1-3.091-.738,5.254,5.254,0,0,1-2.062-2.1l-.55,7.188A1.329,1.329,0,0,1-.22,25.45a1.855,1.855,0,0,1-1.192.389,1.606,1.606,0,0,1-1.16-.405,1.33,1.33,0,0,1-.387-1.079L-1.444,5.375A1.545,1.545,0,0,1-.931,4.218,1.765,1.765,0,0,1,.264,3.8a1.522,1.522,0,0,1,1.144.422,1.413,1.413,0,0,1,.338,1.157l-.064.969a5.1,5.1,0,0,1,2.092-1.92,6.418,6.418,0,0,1,2.965-.693A6.579,6.579,0,0,1,10.237,4.669ZM8.913,15.88a7.183,7.183,0,0,0,1.211-4.415A5.716,5.716,0,0,0,9,7.682,3.984,3.984,0,0,0,5.774,6.345,3.975,3.975,0,0,0,2.42,7.972,7.2,7.2,0,0,0,1.2,12.4a5.64,5.64,0,0,0,1.13,3.789,4.031,4.031,0,0,0,3.222,1.3A3.955,3.955,0,0,0,8.913,15.88Z" transform="translate(37.978 4.267)" fill="#4a96ff"/>
    <path id="Path_7" data-name="Path 7" d="M18.62,4.159a1.511,1.511,0,0,1,.373,1.176L17.93,18.482a1.428,1.428,0,0,1-.534,1.082,1.875,1.875,0,0,1-1.206.4,1.534,1.534,0,0,1-1.082-.371,1.246,1.246,0,0,1-.368-1.045l.094-1.13a5.392,5.392,0,0,1-2.143,1.933,6.506,6.506,0,0,1-2.981.677,5.254,5.254,0,0,1-3.963-1.4A5.682,5.682,0,0,1,4.4,14.521c0-.387.008-.679.03-.873L5.1,5.335A1.654,1.654,0,0,1,5.65,4.178a1.758,1.758,0,0,1,1.192-.422A1.569,1.569,0,0,1,8,4.178a1.393,1.393,0,0,1,.357,1.157L7.68,13.458l-.032.577q0,3.355,3.126,3.354A3.964,3.964,0,0,0,13.8,16.194a5.186,5.186,0,0,0,1.289-3.284l.644-7.575a1.54,1.54,0,0,1,.518-1.157,1.8,1.8,0,0,1,1.224-.422A1.556,1.556,0,0,1,18.62,4.159Z" transform="translate(50.376 4.308)" fill="#4a96ff"/>
    <path id="Path_8" data-name="Path 8" d="M14.174,19.669a9.287,9.287,0,0,1-2.543-1.079,1.542,1.542,0,0,1-.84-1.356,1.332,1.332,0,0,1,.338-.9,1.065,1.065,0,0,1,.822-.387,1.326,1.326,0,0,1,.706.226,8.628,8.628,0,0,0,4.774,1.42q3.383,0,3.381-2a1.582,1.582,0,0,0-.87-1.434,12.87,12.87,0,0,0-2.707-1.015,22.321,22.321,0,0,1-2.7-.934,4.818,4.818,0,0,1-1.775-1.335,3.478,3.478,0,0,1-.741-2.307A4.154,4.154,0,0,1,13.8,5.056a7.871,7.871,0,0,1,4.788-1.324,9.212,9.212,0,0,1,2.771.438,6.353,6.353,0,0,1,2.223,1.141,1.428,1.428,0,0,1,.677,1.195,1.293,1.293,0,0,1-.306.854.98.98,0,0,1-.792.368,1.432,1.432,0,0,1-.8-.255,7.056,7.056,0,0,0-3.934-1.259,4.7,4.7,0,0,0-2.481.548,1.783,1.783,0,0,0-.87,1.611,1.533,1.533,0,0,0,.854,1.418,12.9,12.9,0,0,0,2.691,1,23.037,23.037,0,0,1,2.707.934,4.766,4.766,0,0,1,1.772,1.34,3.515,3.515,0,0,1,.738,2.336,3.944,3.944,0,0,1-1.772,3.429,8.326,8.326,0,0,1-4.86,1.241A11.488,11.488,0,0,1,14.174,19.669Z" transform="translate(61.153 4.267)" fill="#4a96ff"/>
    <path id="Path_9" data-name="Path 9" d="M22.143,19.135A6.521,6.521,0,0,1,19.5,16.479a8.323,8.323,0,0,1-.934-4.014,10.034,10.034,0,0,1,1-4.605,7.218,7.218,0,0,1,2.871-3.048,8.635,8.635,0,0,1,4.382-1.079,10.021,10.021,0,0,1,2.916.419,7,7,0,0,1,2.24,1.1,1.363,1.363,0,0,1,.61,1.192,1.5,1.5,0,0,1-.338.969,1.016,1.016,0,0,1-.822.416,1.2,1.2,0,0,1-.61-.191,6.877,6.877,0,0,0-3.9-1.289,4.423,4.423,0,0,0-3.673,1.608,7.043,7.043,0,0,0-1.292,4.511,5.394,5.394,0,0,0,1.163,3.676,4.174,4.174,0,0,0,3.316,1.318,5.884,5.884,0,0,0,1.952-.306,6.514,6.514,0,0,0,1.753-.951,1.616,1.616,0,0,1,.679-.193.917.917,0,0,1,.738.357,1.26,1.26,0,0,1,.293.838,1.313,1.313,0,0,1-.58,1.16,6.37,6.37,0,0,1-2.274,1.254,9.051,9.051,0,0,1-2.849.451A8.17,8.17,0,0,1,22.143,19.135Z" transform="translate(74.256 4.267)" fill="#4a96ff"/>
    <path id="Path_10" data-name="Path 10" d="M38.157,9.274c0,.408-.008.72-.03.937l-.644,8.311a1.491,1.491,0,0,1-.467,1.1A1.652,1.652,0,0,1,35.869,20a1.493,1.493,0,0,1-1.128-.435,1.349,1.349,0,0,1-.354-1.112l.067-1.093a4.791,4.791,0,0,1-1.872,2.014,5.434,5.434,0,0,1-2.771.69,5.847,5.847,0,0,1-3.88-1.273A4.051,4.051,0,0,1,24.4,15.528a4.132,4.132,0,0,1,.934-2.852,5.646,5.646,0,0,1,2.981-1.533,25.055,25.055,0,0,1,5.494-.481h1.16l.064-.808a3.524,3.524,0,0,0-.644-2.691,3.239,3.239,0,0,0-2.511-.854,9.933,9.933,0,0,0-4.7,1.418,1.293,1.293,0,0,1-.647.161,1.038,1.038,0,0,1-.8-.354A1.2,1.2,0,0,1,25.4,6.7a1.506,1.506,0,0,1,.8-1.289A9.822,9.822,0,0,1,28.96,4.183,11.934,11.934,0,0,1,32.2,3.732Q38.156,3.732,38.157,9.274Zm-4.734,7.188A4.836,4.836,0,0,0,34.742,13.4l.064-.9h-.9a21.076,21.076,0,0,0-3.735.255,3.721,3.721,0,0,0-1.936.838,2.193,2.193,0,0,0-.58,1.611,2.206,2.206,0,0,0,.789,1.788,3.241,3.241,0,0,0,2.143.663A3.811,3.811,0,0,0,33.423,16.463Z" transform="translate(84.084 4.267)" fill="#4a96ff"/>
    <path id="Path_11" data-name="Path 11" d="M33.976,19.669a9.29,9.29,0,0,1-2.548-1.079,1.544,1.544,0,0,1-.838-1.356,1.322,1.322,0,0,1,.341-.9,1.056,1.056,0,0,1,.819-.387,1.335,1.335,0,0,1,.709.226,8.613,8.613,0,0,0,4.772,1.42q3.379,0,3.381-2a1.577,1.577,0,0,0-.87-1.434,12.752,12.752,0,0,0-2.707-1.015,22.551,22.551,0,0,1-2.707-.934,4.831,4.831,0,0,1-1.772-1.335,3.493,3.493,0,0,1-.741-2.307A4.157,4.157,0,0,1,33.6,5.056a7.857,7.857,0,0,1,4.785-1.324,9.2,9.2,0,0,1,2.771.438,6.353,6.353,0,0,1,2.223,1.141,1.428,1.428,0,0,1,.677,1.195,1.307,1.307,0,0,1-.306.854.983.983,0,0,1-.789.368,1.456,1.456,0,0,1-.806-.255A7.039,7.039,0,0,0,38.23,6.213a4.689,4.689,0,0,0-2.481.548,1.783,1.783,0,0,0-.87,1.611A1.535,1.535,0,0,0,35.73,9.79a12.96,12.96,0,0,0,2.691,1,23.28,23.28,0,0,1,2.709.934,4.787,4.787,0,0,1,1.772,1.34A3.53,3.53,0,0,1,43.64,15.4a3.956,3.956,0,0,1-1.772,3.429,8.335,8.335,0,0,1-4.863,1.241A11.483,11.483,0,0,1,33.976,19.669Z" transform="translate(94.52 4.267)" fill="#4a96ff"/>
    <path id="Path_12" data-name="Path 12" d="M50.138,9.387a5.583,5.583,0,0,1,1.369,4.09,9.443,9.443,0,0,1-.035.967l-.642,8.281a1.648,1.648,0,0,1-.532,1.147,1.809,1.809,0,0,1-1.211.4,1.608,1.608,0,0,1-1.157-.4,1.332,1.332,0,0,1-.354-1.147l.642-8.12a5.045,5.045,0,0,0,.035-.677q0-3.283-3.161-3.287a4.258,4.258,0,0,0-3.174,1.195,5.1,5.1,0,0,0-1.337,3.316l-.61,7.572a1.508,1.508,0,0,1-.518,1.147,1.861,1.861,0,0,1-1.224.4,1.608,1.608,0,0,1-1.157-.4,1.332,1.332,0,0,1-.354-1.147L38.328,2.717a1.45,1.45,0,0,1,.532-1.1A1.813,1.813,0,0,1,40.068,1.2a1.614,1.614,0,0,1,1.128.387A1.293,1.293,0,0,1,41.58,2.65l-.644,7.9A5.317,5.317,0,0,1,43.1,8.662,6.779,6.779,0,0,1,46.126,8,5.408,5.408,0,0,1,50.138,9.387Z" transform="translate(104.829 0)" fill="#4a96ff"/>
  </g>
</svg>
